# xmcd
#
# Track frame offsets:
#	150
#	20389
#	43624
#	60231
#	74314
#	87040
#	100890
#	112516
#	125573
#	135900
#	149384
#	163307
#	177762
#	191402
#	205352
#	218861
#	241747
#	257443
#	269500
#	284686
#
# Disc length: 3948 seconds
#
# Revision: 1
# Processed by: cddbd v1.5.2PL0 Copyright (c) Steve Scherf et al.
# Submitted via: audiograbber 1.83.01
#
DISCID=1a0f6a14
DTITLE=John Lee Hooker - JOHN LEE HOOKER - Red Collection [CD 1)
DYEAR=1900
DGENRE=Blues
TTITLE0=Baby baby
TTITLE1=Roll and rumble
TTITLE2=We are cooking
TTITLE3=Dreamin' blues
TTITLE4=Everybody's blues
TTITLE5=Apologize
TTITLE6=Queen Bee
TTITLE7=I'm so excited
TTITLE8=Feed her all night
TTITLE9=Drifting from door to door
TTITLE10=Highway blues
TTITLE11=Forgive me
TTITLE12=Hobo blues
TTITLE13=Alberta
TTITLE14=John L's house rent boogie
TTITLE15=Baby don't do me wrong
TTITLE16=Hey baby
TTITLE17=Find me a woman
TTITLE18=Just me and my telephone
TTITLE19=Walkin' the boogie
EXTD=
EXTT0=
EXTT1=
EXTT2=
EXTT3=
EXTT4=
EXTT5=
EXTT6=
EXTT7=
EXTT8=
EXTT9=
EXTT10=
EXTT11=
EXTT12=
EXTT13=
EXTT14=
EXTT15=
EXTT16=
EXTT17=
EXTT18=
EXTT19=
PLAYORDER=
